<svg width="44" height="22" viewBox="0 0 44 22" fill="none" xmlns="http://www.w3.org/2000/svg">
<rect x="1" y="1" width="42" height="20" rx="10" fill="#668EFF"/>
<rect x="1" y="1" width="42" height="20" rx="10" stroke="#222222" stroke-width="2"/>
<path d="M10.3096 14.496V6.276H11.7376L15.3616 12.432H15.3976V6.276H16.5136V14.496H15.2656L11.4736 7.98H11.4256V14.496H10.3096ZM18.4307 14.496V6.276H23.4227V7.308H19.6667V9.756H22.5827V10.776H19.6667V13.464H23.4707V14.496H18.4307ZM26.4664 14.496L24.4024 6.276H25.6624L27.1384 12.624H27.1744L28.9624 6.276H29.9944L31.7464 12.624H31.7704L33.2704 6.276H34.3984L32.3584 14.496H31.1584L29.4544 8.268H29.4184L27.6664 14.496H26.4664Z" fill="white"/>
</svg>
