<svg width="17" height="16" viewBox="0 0 17 16" fill="none" xmlns="http://www.w3.org/2000/svg">
<path d="M11.8333 6.66667V5.33333C11.8333 3.49238 10.341 2 8.5 2C6.65906 2 5.16667 3.49238 5.16667 5.33333V6.66667M8.5 9.66667V11M6.36667 14H10.6333C11.7534 14 12.3135 14 12.7413 13.782C13.1176 13.5903 13.4236 13.2843 13.6154 12.908C13.8333 12.4802 13.8333 11.9201 13.8333 10.8V9.86667C13.8333 8.74656 13.8333 8.18651 13.6154 7.75869C13.4236 7.38236 13.1176 7.0764 12.7413 6.88465C12.3135 6.66667 11.7534 6.66667 10.6333 6.66667H6.36667C5.24657 6.66667 4.68651 6.66667 4.25869 6.88465C3.88237 7.0764 3.57641 7.38236 3.38466 7.75869C3.16667 8.18651 3.16667 8.74656 3.16667 9.86667V10.8C3.16667 11.9201 3.16667 12.4802 3.38466 12.908C3.57641 13.2843 3.88237 13.5903 4.25869 13.782C4.68651 14 5.24657 14 6.36667 14Z" stroke="#939094" stroke-width="2" stroke-linecap="round" stroke-linejoin="round"/>
</svg>
