<svg width="42" height="60" viewBox="0 0 42 60" fill="none" xmlns="http://www.w3.org/2000/svg">
<path fill-rule="evenodd" clip-rule="evenodd" d="M7 14.3077V18.0769H6.22222C2.78578 18.0769 0 20.9239 0 24.4359V53.641C0 57.153 2.78578 60 6.22222 60H35.7778C39.2142 60 42 57.153 42 53.641V24.4359C42 20.9239 39.2142 18.0769 35.7778 18.0769H35V14.3077C35 6.40577 28.732 0 21 0C13.268 0 7 6.40577 7 14.3077ZM28.7778 18.0769V14.3077C28.7778 9.91774 25.2955 6.35897 21 6.35897C16.7045 6.35897 13.2222 9.91774 13.2222 14.3077V18.0769H28.7778ZM25.6667 36.359C25.6667 38.1243 24.7282 39.6655 23.3333 40.4902V45.6923C23.3333 47.0093 22.2887 48.0769 21 48.0769C19.7113 48.0769 18.6667 47.0093 18.6667 45.6923V40.4902C17.2718 39.6655 16.3333 38.1243 16.3333 36.359C16.3333 33.725 18.4227 31.5897 21 31.5897C23.5773 31.5897 25.6667 33.725 25.6667 36.359Z" fill="white"/>
</svg>
